<svg width="27" height="27" viewBox="0 0 27 27" fill="none" xmlns="http://www.w3.org/2000/svg">
<path fill-rule="evenodd" clip-rule="evenodd" d="M4.27512 0.0905859C3.81152 0.256073 3.50111 0.521297 2.02159 2.01589C0.53048 3.52223 0.347078 3.77149 0.114018 4.60881C-0.0500016 5.19799 -0.034718 6.64888 0.144761 7.53364C0.58734 9.7148 1.88644 12.5856 3.55165 15.062C5.42707 17.851 8.0371 20.5958 10.6624 22.5397C13.6531 24.7542 17.0175 26.3928 19.4847 26.8366C21.2496 27.1541 22.5101 27.0113 23.4573 26.3866C23.6344 26.2698 24.4198 25.5272 25.2025 24.7364C26.9 23.0214 27 22.8712 27 22.0361C27 21.171 26.9527 21.107 24.5113 18.6697C22.6387 16.8002 22.3916 16.5741 22.0204 16.39C21.6678 16.2152 21.5495 16.1857 21.2006 16.1862C20.3609 16.1875 20.1505 16.3255 18.5051 17.9542C17.545 18.9047 17.1161 19.2915 17.0221 19.2915C16.7005 19.2915 15.0038 18.3152 13.9441 17.5205C12.0511 16.1008 9.95662 13.8864 8.70325 11.9794C8.26858 11.3181 7.70526 10.1983 7.70526 9.99564C7.70526 9.88602 8.03189 9.52118 9.06818 8.47321C10.7103 6.81255 10.7795 6.70585 10.7795 5.83724C10.7795 4.96862 10.7698 4.95534 8.33364 2.50217C5.95309 0.105035 5.86537 0.0384653 5.04088 0.00401079C4.69674 -0.0103209 4.49354 0.0126683 4.27512 0.0905859Z" fill="white"/>
</svg>
