<svg width="29" height="28" viewBox="0 0 29 28" fill="none" xmlns="http://www.w3.org/2000/svg">
<path fill-rule="evenodd" clip-rule="evenodd" d="M7.33297 0.090768C4.26046 0.522154 1.7875 2.7327 1.03225 5.72282C0.961132 6.00436 0.876922 6.45293 0.845081 6.71965C0.765181 7.38904 0.765181 20.2215 0.845081 20.8909C1.2198 24.0309 3.4536 26.5848 6.49787 27.3539C6.77938 27.425 7.22791 27.5092 7.4946 27.5411C8.16391 27.621 20.995 27.621 21.6643 27.5411C24.4942 27.2033 26.8602 25.3565 27.8884 22.6829C28.0548 22.2502 28.2494 21.4304 28.3138 20.8909C28.3937 20.2215 28.3937 7.38904 28.3138 6.71965C27.976 3.88946 26.1295 1.52314 23.4562 0.49489C23.0234 0.328445 22.2038 0.13382 21.6643 0.0694304C20.9269 -0.0186142 7.97453 0.000675872 7.33297 0.090768ZM23.2845 3.60291C23.9835 3.838 24.5436 4.39833 24.7803 5.09929C24.8924 5.43121 24.8964 6.08998 24.7885 6.44571C24.3466 7.90265 22.6077 8.52807 21.3396 7.68621C20.596 7.19258 20.2016 6.3137 20.3395 5.45739C20.4777 4.59877 21.0659 3.89043 21.8676 3.61719C22.2379 3.49094 22.9308 3.48399 23.2845 3.60291ZM22.2781 5.21077C21.9678 5.37943 21.8462 5.83646 22.0349 6.12441C22.4029 6.6863 23.2537 6.44183 23.2537 5.77423C23.2537 5.29364 22.7068 4.97773 22.2781 5.21077ZM15.7647 6.33989C17.367 6.60715 18.7786 7.3309 19.9159 8.46826C21.3614 9.91399 22.1204 11.7513 22.1204 13.8053C22.1204 15.8592 21.3614 17.6965 19.9159 19.1422C18.4703 20.588 16.6332 21.347 14.5794 21.347C12.5257 21.347 10.6886 20.588 9.24302 19.1422C7.79744 17.6965 7.03853 15.8592 7.03853 13.8053C7.03853 11.7513 7.79744 9.91399 9.24302 8.46826C10.362 7.34911 11.7757 6.61652 13.3403 6.34495C13.8941 6.24877 15.2022 6.24608 15.7647 6.33989ZM13.5364 7.96429C10.7261 8.47203 8.65296 10.9517 8.65296 13.8053C8.65296 17.4616 11.9884 20.2758 15.5797 19.6494C19.5281 18.9608 21.6762 14.6443 19.8412 11.0861C18.6588 8.79334 16.0627 7.50791 13.5364 7.96429Z" fill="url(#paint0_linear_267_28)"/>
<defs>
<linearGradient id="paint0_linear_267_28" x1="0.769288" y1="13.5539" x2="35.443" y2="13.5539" gradientUnits="userSpaceOnUse">
<stop stop-color="#0294E7"/>
<stop offset="1" stop-color="#03CCC1"/>
</linearGradient>
</defs>
</svg>
