<svg width="30" height="30" viewBox="0 0 30 30" fill="none" xmlns="http://www.w3.org/2000/svg">
<path fill-rule="evenodd" clip-rule="evenodd" d="M7.12013 0.0851789C3.77907 0.554271 1.08996 2.95803 0.268692 6.20951C0.191358 6.51566 0.0997872 7.00344 0.0651627 7.29348C-0.0217209 8.02137 -0.0217209 21.9754 0.0651627 22.7033C0.472631 26.1178 2.90168 28.895 6.21204 29.7313C6.51816 29.8086 7.00589 29.9002 7.29589 29.9348C8.02371 30.0217 21.9763 30.0217 22.7041 29.9348C25.7814 29.5675 28.3542 27.5593 29.4722 24.6521C29.6532 24.1814 29.8648 23.29 29.9348 22.7033C30.0217 21.9754 30.0217 8.02137 29.9348 7.29348C29.5676 4.2159 27.5596 1.64275 24.6526 0.524623C24.1821 0.343631 23.2907 0.131994 22.7041 0.0619762C21.9022 -0.0337641 7.81778 -0.012788 7.12013 0.0851789ZM24.4659 3.9043C25.2261 4.15994 25.8351 4.76925 26.0925 5.53148C26.2144 5.89241 26.2187 6.60876 26.1014 6.99559C25.6208 8.57988 23.73 9.25996 22.351 8.34451C21.5424 7.80774 21.1135 6.85204 21.2635 5.92088C21.4139 4.98721 22.0534 4.21695 22.9252 3.91983C23.3278 3.78255 24.0814 3.77499 24.4659 3.9043ZM23.3716 5.65271C23.0342 5.8361 22.9019 6.33308 23.1071 6.6462C23.5073 7.25721 24.4324 6.99137 24.4324 6.26541C24.4324 5.74282 23.8377 5.39929 23.3716 5.65271ZM16.2889 6.88052C18.0312 7.17113 19.5662 7.95815 20.8029 9.19492C22.3748 10.767 23.2 12.7649 23.2 14.9984C23.2 17.2319 22.3748 19.2298 20.8029 20.8019C19.2309 22.374 17.2333 23.1993 15 23.1993C12.7667 23.1993 10.7691 22.374 9.19714 20.8019C7.62521 19.2298 6.79996 17.2319 6.79996 14.9984C6.79996 12.7649 7.62521 10.767 9.19714 9.19492C10.414 7.97795 11.9512 7.18133 13.6525 6.88602C14.2548 6.78143 15.6771 6.77851 16.2889 6.88052ZM13.8658 8.64691C10.8099 9.19902 8.5555 11.8955 8.5555 14.9984C8.5555 18.9743 12.1825 22.0345 16.0877 21.3534C20.3812 20.6046 22.7171 15.9107 20.7217 12.0416C19.4359 9.54841 16.6129 8.15063 13.8658 8.64691Z" fill="url(#paint0_linear_265_7)"/>
<defs>
<linearGradient id="paint0_linear_265_7" x1="-0.0172555" y1="14.7251" x2="37.6872" y2="14.7251" gradientUnits="userSpaceOnUse">
<stop stop-color="#0294E7"/>
<stop offset="1" stop-color="#03CCC1"/>
</linearGradient>
</defs>
</svg>
