<svg width="24" height="24" viewBox="0 0 24 24" fill="none" xmlns="http://www.w3.org/2000/svg">
<path fill-rule="evenodd" clip-rule="evenodd" d="M12.0769 1.12685C12.0769 2.41524 12.0353 2.31059 12.548 2.31059C13.0037 2.31059 13.831 2.43362 14.4528 2.5939C18.5024 3.63765 21.4628 7.21621 21.6819 11.3327L21.7119 11.8951L22.8559 11.9076L24 11.9202L23.9676 11.3452C23.8727 9.65854 23.4723 8.13622 22.7382 6.67048C22.1311 5.45838 21.5192 4.59287 20.5876 3.6287C18.4962 1.46397 15.7186 0.205328 12.6513 0.0323857L12.0769 0V1.12685ZM3.42297 2.43999C3.05178 2.57258 2.80324 2.78508 1.61863 3.98255C0.42474 5.18945 0.277895 5.38915 0.0912913 6.06002C-0.0400348 6.53207 -0.0277977 7.69454 0.115906 8.40342C0.470266 10.151 1.51042 12.4511 2.8437 14.4352C4.3453 16.6698 6.43508 18.8689 8.53709 20.4264C10.9316 22.2007 13.6254 23.5135 15.6008 23.8691C17.014 24.1235 18.0232 24.0091 18.7816 23.5086C18.9234 23.415 19.5522 22.82 20.1789 22.1864C21.5381 20.8123 21.6181 20.6919 21.6181 20.0229C21.6181 19.3297 21.5802 19.2785 19.6255 17.3257C18.1261 15.8279 17.9283 15.6467 17.6311 15.4992C17.3488 15.3591 17.254 15.3355 16.9747 15.3359C16.3024 15.3369 16.1339 15.4475 14.8165 16.7525C14.0478 17.514 13.7043 17.8239 13.6291 17.8239C13.3716 17.8239 12.0131 17.0417 11.1646 16.405C9.64893 15.2675 7.97198 13.4933 6.96845 11.9654C6.62042 11.4355 6.16938 10.5383 6.16938 10.376C6.16938 10.2882 6.4309 9.99585 7.26064 9.15621C8.5754 7.82568 8.63086 7.74019 8.63086 7.04425C8.63086 6.34831 8.62308 6.33767 6.67251 4.37217C4.76647 2.45157 4.69624 2.39823 4.03609 2.37063C3.76055 2.35914 3.59785 2.37756 3.42297 2.43999ZM12.0769 5.39928V6.51951L12.37 6.54942C13.2284 6.63706 13.8562 6.80663 14.4753 7.11806C14.9777 7.37078 15.3287 7.62236 15.7714 8.04722C16.7942 9.02882 17.2911 10.0893 17.448 11.6256L17.478 11.9185H18.5986H19.7193L19.7183 11.6725C19.717 11.3131 19.6008 10.4979 19.488 10.0561C19.1516 8.73908 18.4463 7.50805 17.4677 6.52978C16.4909 5.55338 15.2589 4.84685 13.951 4.513C13.486 4.39438 12.7061 4.28106 12.3465 4.27988L12.0769 4.27904V5.39928Z" fill="#03CCC1"/>
</svg>
