<svg width="21" height="24" viewBox="0 0 21 24" fill="none" xmlns="http://www.w3.org/2000/svg">
<g clip-path="url(#clip0_36:27)">
<path d="M9.81809 2.09091C8.26129 2.09098 6.73285 2.48563 5.39122 3.23394C4.04959 3.98225 2.94362 5.05698 2.18795 6.34672C1.43228 7.63645 1.05444 9.09423 1.09358 10.5689C1.13272 12.0436 1.58743 13.4816 2.41057 14.7337L9.81809 25L17.2256 14.7337C18.0488 13.4816 18.5035 12.0436 18.5426 10.5689C18.5818 9.09423 18.2039 7.63645 17.4482 6.34672C16.6926 5.05698 15.5866 3.98225 14.245 3.23394C12.9033 2.48563 11.3749 2.09098 9.81809 2.09091ZM9.81809 13.4029C9.18318 13.4029 8.56252 13.2245 8.03461 12.8902C7.50669 12.556 7.09523 12.0809 6.85226 11.5251C6.60929 10.9692 6.54572 10.3576 6.66958 9.76755C6.79345 9.17749 7.09919 8.63548 7.54814 8.21007C7.9971 7.78465 8.5691 7.49494 9.19182 7.37757C9.81453 7.2602 10.46 7.32044 11.0466 7.55067C11.6332 7.7809 12.1345 8.17079 12.4873 8.67102C12.84 9.17126 13.0283 9.75937 13.0283 10.361C13.0283 11.1677 12.6901 11.9415 12.088 12.5119C11.486 13.0824 10.6695 13.4029 9.81809 13.4029Z" fill="#03CCC1"/>
</g>
<defs>
<clipPath id="clip0_36:27">
<rect width="20.7273" height="24" fill="white"/>
</clipPath>
</defs>
</svg>
