<svg width="40" height="40" viewBox="0 0 40 40" fill="none" xmlns="http://www.w3.org/2000/svg">
<path fill-rule="evenodd" clip-rule="evenodd" d="M20.1282 1.87801C20.1282 4.02535 20.0588 3.85092 20.9133 3.85092C21.6729 3.85092 23.0517 4.05597 24.0879 4.32311C30.8374 6.06269 35.7713 12.0269 36.1366 18.8877L36.1865 19.8251L38.0932 19.846L40 19.8669L39.9461 18.9086C39.7878 16.0975 39.1204 13.5603 37.897 11.1174C36.8851 9.09723 35.8653 7.65472 34.3127 6.04777C30.827 2.43988 26.1977 0.342153 21.0855 0.0539152L20.1282 -6.10352e-05V1.87801ZM5.70495 4.06659C5.0863 4.28757 4.67206 4.64174 2.69772 6.63753C0.707901 8.64902 0.463159 8.98186 0.152152 10.1C-0.0667247 10.8867 -0.0463295 12.8242 0.193177 14.0056C0.783777 16.9182 2.51737 20.7517 4.7395 24.0586C7.24217 27.7829 10.7251 31.4481 14.2285 34.0439C18.2194 37.0011 22.709 39.1892 26.0013 39.7818C28.3566 40.2057 30.0386 40.0151 31.3026 39.1809C31.539 39.0249 32.587 38.0332 33.6315 36.9772C35.8968 34.6871 36.0302 34.4865 36.0302 33.3715C36.0302 32.2162 35.9671 32.1307 32.7092 28.8761C30.2102 26.3797 29.8806 26.0778 29.3852 25.832C28.9146 25.5985 28.7567 25.5591 28.2912 25.5598C27.1706 25.5615 26.8898 25.7458 24.6942 27.9207C23.413 29.1899 22.8406 29.7064 22.7152 29.7064C22.2861 29.7064 20.0218 28.4028 18.6077 27.3416C16.0816 25.4458 13.2866 22.4888 11.6141 19.9422C11.034 19.0592 10.2823 17.5638 10.2823 17.2933C10.2823 17.1469 10.7182 16.6597 12.1011 15.2603C14.2923 13.0427 14.3848 12.9003 14.3848 11.7404C14.3848 10.5804 14.3718 10.5627 11.1208 7.28688C7.94412 4.08588 7.82706 3.99699 6.72682 3.95098C6.26757 3.93184 5.99642 3.96254 5.70495 4.06659ZM20.1282 8.99873V10.8658L20.6166 10.9156C22.0473 11.0617 23.0937 11.3443 24.1255 11.8634C24.9628 12.2846 25.5478 12.7039 26.2856 13.412C27.9903 15.048 28.8185 16.8154 29.0801 19.3759L29.1299 19.8641H30.9977H32.8654L32.8639 19.454C32.8617 18.8551 32.6681 17.4964 32.48 16.7601C31.9193 14.5651 30.7439 12.5134 29.1128 10.8829C27.4849 9.25557 25.4314 8.07801 23.2516 7.52161C22.4767 7.32391 21.1769 7.13503 20.5776 7.13308L20.1282 7.13167V8.99873Z" fill="white"/>
</svg>
