<svg width="41" height="30" viewBox="0 0 41 30" fill="none" xmlns="http://www.w3.org/2000/svg">
<path fill-rule="evenodd" clip-rule="evenodd" d="M15.8991 0.939582C9.1048 1.06666 5.11478 1.3836 3.86701 1.89506C2.7353 2.35899 1.77917 3.22991 1.2173 4.30865C0.488074 5.70874 0.103306 8.77291 0.0132858 13.897C-0.0586798 17.9892 0.164187 21.7121 0.621844 24.0635C1.12115 26.6292 2.48808 28.0934 4.8522 28.5951C6.99966 29.0509 12.7012 29.3205 20.1818 29.32C27.8198 29.3194 33.269 29.0616 35.549 28.593C36.2936 28.4399 37.3545 27.9118 37.9101 27.4175C38.4883 26.9032 39.0781 26.011 39.3232 25.2801C39.9923 23.2847 40.4043 17.466 40.2185 12.6345C39.9664 6.081 39.4363 4.02171 37.6505 2.65763C36.8233 2.02578 36.2547 1.79509 34.9803 1.57414C33.4031 1.30066 29.6 1.05921 25.5981 0.978469C20.9084 0.883921 19.2331 0.877143 15.8991 0.939582ZM21.317 12.0572C24.145 13.7013 26.4557 15.0832 26.4517 15.1283C26.4461 15.1934 16.2424 21.183 16.1373 21.183C16.1217 21.183 16.1091 18.4571 16.1091 15.1255C16.1091 11.7939 16.1239 9.06799 16.1421 9.06799C16.1603 9.06799 18.489 10.4131 21.317 12.0572Z" fill="url(#paint0_linear_265_10)"/>
<defs>
<linearGradient id="paint0_linear_265_10" x1="-0.0231587" y1="14.849" x2="50.5801" y2="14.849" gradientUnits="userSpaceOnUse">
<stop stop-color="#0294E7"/>
<stop offset="1" stop-color="#03CCC1"/>
</linearGradient>
</defs>
</svg>
