<svg width="38" height="27" viewBox="0 0 38 27" fill="none" xmlns="http://www.w3.org/2000/svg">
<path fill-rule="evenodd" clip-rule="evenodd" d="M14.6211 0.0374094C8.37295 0.154275 4.70365 0.445738 3.55618 0.916083C2.51543 1.34272 1.63616 2.14364 1.11946 3.13567C0.448842 4.42322 0.095002 7.24108 0.0122179 11.9533C-0.0539631 15.7166 0.150989 19.1402 0.57186 21.3026C1.03103 23.662 2.28808 25.0086 4.46217 25.4699C6.43702 25.8891 11.6803 26.137 18.5596 26.1365C25.5836 26.1361 30.5948 25.899 32.6915 25.468C33.3763 25.3272 34.3519 24.8416 34.8629 24.387C35.3945 23.9141 35.937 23.0936 36.1624 22.4214C36.7777 20.5864 37.1566 15.2354 36.9857 10.7922C36.7538 4.76556 36.2664 2.87179 34.6241 1.61735C33.8634 1.0363 33.3405 0.824149 32.1686 0.620958C30.7182 0.369463 27.2207 0.147419 23.5405 0.0731702C19.2278 -0.0137778 17.6872 -0.0200106 14.6211 0.0374094ZM19.6035 10.2614C22.2042 11.7733 24.3291 13.0442 24.3255 13.0856C24.3203 13.1454 14.9368 18.6536 14.8401 18.6536C14.8259 18.6536 14.8142 16.1469 14.8142 13.083C14.8142 10.0192 14.8279 7.51245 14.8445 7.51245C14.8613 7.51245 17.0028 8.74943 19.6035 10.2614Z" fill="url(#paint0_linear_267_29)"/>
<defs>
<linearGradient id="paint0_linear_267_29" x1="-0.0212971" y1="12.8288" x2="46.5145" y2="12.8288" gradientUnits="userSpaceOnUse">
<stop stop-color="#0294E7"/>
<stop offset="1" stop-color="#03CCC1"/>
</linearGradient>
</defs>
</svg>
