<svg width="21" height="27" viewBox="0 0 21 27" fill="none" xmlns="http://www.w3.org/2000/svg">
<path d="M9.81809 2.09082C8.26129 2.0909 6.73285 2.48555 5.39122 3.23386C4.04959 3.98217 2.94362 5.0569 2.18795 6.34663C1.43228 7.63636 1.05444 9.09414 1.09358 10.5688C1.13272 12.0436 1.58743 13.4815 2.41057 14.7336L9.81809 24.9999L17.2256 14.7336C18.0488 13.4815 18.5035 12.0436 18.5426 10.5688C18.5818 9.09414 18.2039 7.63636 17.4482 6.34663C16.6926 5.0569 15.5866 3.98217 14.245 3.23386C12.9033 2.48555 11.3749 2.0909 9.81809 2.09082ZM9.81809 13.4028C9.18318 13.4028 8.56252 13.2244 8.03461 12.8901C7.50669 12.5559 7.09523 12.0808 6.85226 11.525C6.60929 10.9692 6.54572 10.3575 6.66958 9.76747C6.79345 9.1774 7.09919 8.63539 7.54814 8.20998C7.9971 7.78457 8.5691 7.49486 9.19182 7.37748C9.81453 7.26011 10.46 7.32035 11.0466 7.55058C11.6332 7.78082 12.1345 8.1707 12.4873 8.67093C12.84 9.17117 13.0283 9.75928 13.0283 10.3609C13.0283 11.1677 12.6901 11.9414 12.088 12.5118C11.486 13.0823 10.6695 13.4028 9.81809 13.4028Z" fill="white"/>
</svg>
