<svg width="175" height="23" viewBox="0 0 175 23" fill="none" xmlns="http://www.w3.org/2000/svg">
<g opacity="0.8">
<mask id="path-1-inside-1_268_82" fill="white">
<path fill-rule="evenodd" clip-rule="evenodd" d="M59.8387 0.323935C59.507 0.600989 59.4451 0.883026 59.4029 2.30817L59.3538 3.96938L54.7393 4.06167C50.1338 4.15378 50.1228 4.15507 49.0622 4.67558C46.991 5.69224 46.7101 6.5282 46.7101 11.6745C46.7101 15.8744 46.7961 16.2976 47.8493 17.2761C48.9775 18.3245 50.4982 18.6446 54.333 18.6405C56.0195 18.6388 57.5574 18.5392 58.188 18.3908C59.5383 18.0729 60.9257 17.1773 61.5944 16.1917L62.1225 15.4133L62.1765 8.08421C62.2295 0.913112 62.2225 0.746991 61.8535 0.378016C61.3841 -0.0913694 60.3684 -0.118687 59.8387 0.323935ZM103.082 0.389277C102.804 0.696048 102.723 1.094 102.696 2.28122C102.677 3.10813 102.657 3.84701 102.65 3.92324C102.643 3.99947 102.39 4.06167 102.088 4.06167C101.288 4.06167 100.893 4.73981 101.045 5.85154C101.11 6.32314 101.203 6.74915 101.252 6.79843C101.301 6.84753 101.654 6.93853 102.036 7.00055L102.73 7.11332L102.763 12.4964C102.784 16.0193 102.866 18.0115 103 18.2616C103.164 18.567 103.383 18.6435 104.098 18.6435C104.704 18.6435 105.074 18.5453 105.245 18.3385C105.443 18.1012 105.519 16.8233 105.591 12.5704L105.683 7.10723L107.698 7.05444C110.006 6.99408 110.19 6.885 110.2 5.57227C110.21 4.1211 110.113 4.06167 107.725 4.06167H105.627L105.563 2.29303C105.509 0.80015 105.443 0.483781 105.14 0.262654C104.593 -0.13696 103.497 -0.0694035 103.082 0.389277ZM3.36175 4.00334C2.41264 4.13292 1.27009 4.85647 0.657472 5.71569L0.103733 6.49259L0.0518665 14.3134L0 22.1344L0.421026 22.3939C0.652673 22.5366 1.09123 22.6339 1.39579 22.6103C1.70035 22.5866 2.0815 22.5565 2.24283 22.5434C2.71775 22.5049 2.96472 21.6785 2.96472 20.1282V18.6771L7.44077 18.6112C11.6276 18.5497 11.9761 18.5183 12.8329 18.1259C13.9538 17.6128 14.3201 17.2916 14.8865 16.3248C15.3151 15.5935 15.3266 15.4637 15.3386 11.2117C15.3489 7.50353 15.3052 6.76096 15.0464 6.26075C14.6324 5.46005 13.9245 4.82823 12.932 4.37324C12.1826 4.02992 11.7044 3.98895 8.04065 3.95572C5.80724 3.9356 3.70174 3.95701 3.36175 4.00334ZM21.9764 4.04986C21.0806 4.23075 20.3065 4.66562 19.5972 5.38658C18.5098 6.49185 18.4794 6.68879 18.4637 12.6982C18.4506 17.7028 18.4772 18.1925 18.7716 18.4079C18.9488 18.5375 19.2786 18.6435 19.5047 18.6435C19.7308 18.6435 20.0435 18.6924 20.1996 18.7524C20.3671 18.8166 20.676 18.6686 20.9531 18.3915L21.4227 17.9219V12.8587V7.79572L21.9114 7.47547C22.2341 7.26394 22.9264 7.12237 23.9499 7.0585C25.2453 6.97784 25.5438 6.89884 25.7684 6.57823C26.1221 6.0734 26.1117 4.80386 25.7498 4.28741C25.4927 3.9201 25.3136 3.8793 24.0424 3.89832C23.2615 3.90994 22.3317 3.97824 21.9764 4.04986ZM32.036 4.041C30.4567 4.44523 29.2708 5.43605 28.601 6.91066C28.3064 7.55908 28.2597 8.16321 28.2562 11.3625C28.2521 14.9952 28.2612 15.0822 28.7385 16.04C29.3129 17.1925 30.3041 17.9784 31.6927 18.3821C32.4581 18.6045 33.4621 18.6527 36.4113 18.608C39.8092 18.5565 40.2347 18.5139 40.9881 18.1506C41.9226 17.7003 42.6275 17.0136 43.1359 16.0593C43.4319 15.5034 43.4882 14.8948 43.5394 11.6987C43.5748 9.49219 43.5205 7.6929 43.4059 7.26708C43.0785 6.05125 42.2728 4.99583 41.265 4.46258C40.3598 3.98359 40.2675 3.97344 36.4659 3.93671C34.334 3.91622 32.3406 3.96311 32.036 4.041ZM69.3211 4.04174C67.5809 4.37564 66.2032 5.3624 65.5566 6.73826C65.2003 7.49577 65.1682 7.88395 65.1697 11.3967L65.1715 15.2287L65.733 16.2079C66.889 18.2237 68.5717 18.7348 73.6367 18.6084C76.3196 18.5414 76.8198 18.4799 77.6249 18.1172C78.745 17.6126 79.2919 17.1216 79.8139 16.1516C80.1847 15.4628 80.2113 15.1532 80.2113 11.5371C80.2113 9.40525 80.1443 7.3446 80.0623 6.95772C79.8696 6.04664 78.7819 4.84983 77.7209 4.38081C77.0071 4.06555 76.403 4.00501 73.4741 3.95665C71.596 3.92545 69.7272 3.96384 69.3211 4.04174ZM86.7491 4.06352C85.6248 4.25382 84.4767 4.85813 84.0429 5.48792C83.2323 6.66498 83.1642 7.11794 83.174 11.2603C83.1841 15.5113 83.2923 16.1882 84.1185 17.1701C85.184 18.4364 86.4393 18.6411 93.1494 18.6423C98.0776 18.6435 98.3516 18.6254 98.6646 18.2793C98.8459 18.079 99.0231 17.5751 99.0583 17.1593C99.1096 16.5531 99.0334 16.3146 98.6735 15.9545L98.2246 15.5056H92.9497C88.6194 15.5056 87.5531 15.4547 86.9951 15.2215C86.6212 15.0654 86.2514 14.8369 86.1732 14.7139C86.0951 14.591 86.03 12.989 86.0283 11.154C86.0255 7.90333 86.0366 7.80735 86.4526 7.41622C86.8724 7.02196 86.9804 7.01494 92.6257 7.01494C98.354 7.01494 98.3722 7.01365 98.6587 6.60462C99.0771 6.00733 99.0319 4.70124 98.5769 4.24625C98.2238 3.89315 97.9771 3.87802 92.9011 3.89887C89.9825 3.91069 87.214 3.98489 86.7491 4.06352ZM116.85 4.05078C115.003 4.38856 114.034 5.0261 113.187 6.46121L112.697 7.29181V11.3526C112.697 15.2055 112.718 15.453 113.111 16.1871C113.571 17.047 114.377 17.735 115.476 18.2055C116.451 18.6228 121.876 18.7939 123.715 18.4655C125.31 18.1803 126.544 17.3902 127.184 16.2439C127.641 15.4255 127.648 15.3526 127.648 11.2603C127.648 7.27188 127.631 7.07438 127.218 6.27663C126.723 5.32106 126.317 4.9519 125.156 4.40296C124.423 4.05576 123.939 4.00353 121.003 3.95443C119.176 3.92379 117.307 3.96717 116.85 4.05078ZM134.57 4.04912C132.983 4.36715 131.238 5.81629 130.999 7.01439C130.938 7.31876 130.881 9.94348 130.873 12.8471C130.855 18.8033 130.812 18.6261 132.28 18.6375C133.649 18.6483 133.647 18.6566 133.647 12.9444V7.92031L134.135 7.46753C134.571 7.06367 134.787 7.01494 136.137 7.01494C137.984 7.01494 138.262 6.806 138.262 5.4139C138.262 4.13605 137.936 3.87081 136.401 3.89832C135.749 3.90994 134.925 3.97787 134.57 4.04912ZM144.707 4.06352C142.986 4.35479 141.618 5.45082 140.935 7.08508C140.535 8.04379 140.541 14.6768 140.944 15.64C141.585 17.1749 142.651 17.9985 144.573 18.443C145.728 18.7103 151.161 18.6998 152.254 18.4282C153.876 18.0253 155.109 16.9509 155.587 15.5242C155.851 14.7333 155.86 8.34816 155.598 7.19952C155.006 4.60507 153.309 3.86435 148.044 3.90238C146.674 3.91234 145.172 3.98489 144.707 4.06352ZM157.411 4.10782C156.596 4.73003 156.883 5.63318 158.888 8.76845C160.889 11.8969 161.887 13.4734 163.465 16.0018C164.364 17.442 165.28 18.7175 165.502 18.836C166.124 19.1688 166.627 18.8915 167.298 17.8472C168.164 16.4986 171.414 11.3407 171.763 10.7612C171.864 10.5925 172.397 9.74284 172.948 8.8731C175.189 5.3301 175.327 4.94968 174.624 4.24625C174.375 3.99725 174.009 3.87709 173.498 3.87709C172.89 3.87709 172.637 3.98931 172.206 4.45039C171.911 4.76566 171.67 5.10196 171.67 5.19757C171.67 5.29337 171.358 5.84527 170.976 6.42411C170.383 7.32356 168.476 10.395 167.885 11.4035C166.406 13.9271 166.072 14.3922 165.863 14.2193C165.74 14.117 165.199 13.3056 164.66 12.4161C162.629 9.05935 159.783 4.51094 159.52 4.20011C159.195 3.81618 157.869 3.75804 157.411 4.10782ZM11.8794 7.43449L12.3783 7.76175V11.175V14.5881L11.7784 14.9539C11.228 15.2895 10.8402 15.3197 7.07161 15.3203L2.96472 15.321V11.5584C2.96472 6.70577 2.59297 7.03322 8.04933 7.07918C10.8968 7.10317 11.453 7.15467 11.8794 7.43449ZM38.8398 7.13233C39.3525 7.20266 39.8814 7.42139 40.1577 7.67722C40.6141 8.10027 40.6189 8.13737 40.6189 11.1774V14.2501L40.0591 14.773C39.3516 15.434 38.3333 15.5754 35.0347 15.4709C32.5037 15.3906 31.5736 15.1431 31.32 14.4821C31.2571 14.3178 31.2054 12.8704 31.2054 11.2656C31.2054 7.96239 31.2763 7.7588 32.5897 7.29292C33.3733 7.01513 37.2565 6.91527 38.8398 7.13233ZM59.3923 10.7988L59.4309 14.4904L58.8462 14.9519C58.2638 15.4115 58.2456 15.4133 54.3159 15.4133H50.3703L49.9245 14.8954C49.4933 14.3944 49.4788 14.2809 49.4788 11.4223C49.4788 9.65831 49.5592 8.31715 49.6783 8.09455C49.7879 7.88967 50.2241 7.5637 50.6473 7.37063C51.3388 7.05481 51.8194 7.0238 55.3853 7.0633L59.3538 7.10723L59.3923 10.7988ZM76.8427 7.45147L77.3503 7.79572V11.1767V14.5576L76.7504 14.9855C76.2024 15.3762 75.9203 15.4188 73.4931 15.4774C70.0808 15.5595 68.9421 15.4203 68.3734 14.8516C67.9487 14.4269 67.9367 14.3295 67.9367 11.2972C67.9367 7.88487 67.9085 7.97863 69.1365 7.31618C69.5981 7.06718 70.2425 7.02491 73.0127 7.06238C75.9037 7.10132 76.401 7.1519 76.8427 7.45147ZM123.94 7.27299C124.28 7.41493 124.614 7.62147 124.682 7.73204C124.923 8.12261 124.902 14.2303 124.659 14.5786C124.138 15.3218 123.296 15.5058 120.422 15.5036C117.12 15.5012 116.439 15.4032 115.836 14.8444C115.378 14.4195 115.374 14.3885 115.374 11.2977C115.374 7.88321 115.357 7.94043 116.574 7.30566C117.331 6.91103 123.013 6.88574 123.94 7.27299ZM152.223 7.36934C152.917 7.79276 152.973 8.13922 152.951 11.8408C152.929 15.4222 152.822 15.5028 148.094 15.5045C145.028 15.5058 144.008 15.2804 143.665 14.5266C143.47 14.0982 143.509 8.2579 143.709 7.93415C143.772 7.83282 144.129 7.58806 144.503 7.39056C145.1 7.07512 145.578 7.03026 148.413 7.0238C151.278 7.01716 151.709 7.05629 152.223 7.36934ZM6.25559 9.50012C5.52114 9.99332 5.31386 10.4225 5.31386 11.45C5.31386 12.7923 6.28955 13.658 7.80347 13.6591C9.43183 13.6604 10.4959 12.1817 9.98372 10.6294C9.51951 9.2227 7.55484 8.62761 6.25559 9.50012ZM53.3852 9.35707C52.5524 9.76758 52.1869 10.3854 52.2017 11.3587C52.2255 12.9388 53.5646 13.9158 55.1291 13.4944C56.2739 13.1862 56.7697 12.5403 56.7697 11.357C56.7697 10.2471 56.4254 9.71497 55.4374 9.29672C54.664 8.96927 54.1409 8.98478 53.3852 9.35707Z"/>
</mask>
<path fill-rule="evenodd" clip-rule="evenodd" d="M59.8387 0.323935C59.507 0.600989 59.4451 0.883026 59.4029 2.30817L59.3538 3.96938L54.7393 4.06167C50.1338 4.15378 50.1228 4.15507 49.0622 4.67558C46.991 5.69224 46.7101 6.5282 46.7101 11.6745C46.7101 15.8744 46.7961 16.2976 47.8493 17.2761C48.9775 18.3245 50.4982 18.6446 54.333 18.6405C56.0195 18.6388 57.5574 18.5392 58.188 18.3908C59.5383 18.0729 60.9257 17.1773 61.5944 16.1917L62.1225 15.4133L62.1765 8.08421C62.2295 0.913112 62.2225 0.746991 61.8535 0.378016C61.3841 -0.0913694 60.3684 -0.118687 59.8387 0.323935ZM103.082 0.389277C102.804 0.696048 102.723 1.094 102.696 2.28122C102.677 3.10813 102.657 3.84701 102.65 3.92324C102.643 3.99947 102.39 4.06167 102.088 4.06167C101.288 4.06167 100.893 4.73981 101.045 5.85154C101.11 6.32314 101.203 6.74915 101.252 6.79843C101.301 6.84753 101.654 6.93853 102.036 7.00055L102.73 7.11332L102.763 12.4964C102.784 16.0193 102.866 18.0115 103 18.2616C103.164 18.567 103.383 18.6435 104.098 18.6435C104.704 18.6435 105.074 18.5453 105.245 18.3385C105.443 18.1012 105.519 16.8233 105.591 12.5704L105.683 7.10723L107.698 7.05444C110.006 6.99408 110.19 6.885 110.2 5.57227C110.21 4.1211 110.113 4.06167 107.725 4.06167H105.627L105.563 2.29303C105.509 0.80015 105.443 0.483781 105.14 0.262654C104.593 -0.13696 103.497 -0.0694035 103.082 0.389277ZM3.36175 4.00334C2.41264 4.13292 1.27009 4.85647 0.657472 5.71569L0.103733 6.49259L0.0518665 14.3134L0 22.1344L0.421026 22.3939C0.652673 22.5366 1.09123 22.6339 1.39579 22.6103C1.70035 22.5866 2.0815 22.5565 2.24283 22.5434C2.71775 22.5049 2.96472 21.6785 2.96472 20.1282V18.6771L7.44077 18.6112C11.6276 18.5497 11.9761 18.5183 12.8329 18.1259C13.9538 17.6128 14.3201 17.2916 14.8865 16.3248C15.3151 15.5935 15.3266 15.4637 15.3386 11.2117C15.3489 7.50353 15.3052 6.76096 15.0464 6.26075C14.6324 5.46005 13.9245 4.82823 12.932 4.37324C12.1826 4.02992 11.7044 3.98895 8.04065 3.95572C5.80724 3.9356 3.70174 3.95701 3.36175 4.00334ZM21.9764 4.04986C21.0806 4.23075 20.3065 4.66562 19.5972 5.38658C18.5098 6.49185 18.4794 6.68879 18.4637 12.6982C18.4506 17.7028 18.4772 18.1925 18.7716 18.4079C18.9488 18.5375 19.2786 18.6435 19.5047 18.6435C19.7308 18.6435 20.0435 18.6924 20.1996 18.7524C20.3671 18.8166 20.676 18.6686 20.9531 18.3915L21.4227 17.9219V12.8587V7.79572L21.9114 7.47547C22.2341 7.26394 22.9264 7.12237 23.9499 7.0585C25.2453 6.97784 25.5438 6.89884 25.7684 6.57823C26.1221 6.0734 26.1117 4.80386 25.7498 4.28741C25.4927 3.9201 25.3136 3.8793 24.0424 3.89832C23.2615 3.90994 22.3317 3.97824 21.9764 4.04986ZM32.036 4.041C30.4567 4.44523 29.2708 5.43605 28.601 6.91066C28.3064 7.55908 28.2597 8.16321 28.2562 11.3625C28.2521 14.9952 28.2612 15.0822 28.7385 16.04C29.3129 17.1925 30.3041 17.9784 31.6927 18.3821C32.4581 18.6045 33.4621 18.6527 36.4113 18.608C39.8092 18.5565 40.2347 18.5139 40.9881 18.1506C41.9226 17.7003 42.6275 17.0136 43.1359 16.0593C43.4319 15.5034 43.4882 14.8948 43.5394 11.6987C43.5748 9.49219 43.5205 7.6929 43.4059 7.26708C43.0785 6.05125 42.2728 4.99583 41.265 4.46258C40.3598 3.98359 40.2675 3.97344 36.4659 3.93671C34.334 3.91622 32.3406 3.96311 32.036 4.041ZM69.3211 4.04174C67.5809 4.37564 66.2032 5.3624 65.5566 6.73826C65.2003 7.49577 65.1682 7.88395 65.1697 11.3967L65.1715 15.2287L65.733 16.2079C66.889 18.2237 68.5717 18.7348 73.6367 18.6084C76.3196 18.5414 76.8198 18.4799 77.6249 18.1172C78.745 17.6126 79.2919 17.1216 79.8139 16.1516C80.1847 15.4628 80.2113 15.1532 80.2113 11.5371C80.2113 9.40525 80.1443 7.3446 80.0623 6.95772C79.8696 6.04664 78.7819 4.84983 77.7209 4.38081C77.0071 4.06555 76.403 4.00501 73.4741 3.95665C71.596 3.92545 69.7272 3.96384 69.3211 4.04174ZM86.7491 4.06352C85.6248 4.25382 84.4767 4.85813 84.0429 5.48792C83.2323 6.66498 83.1642 7.11794 83.174 11.2603C83.1841 15.5113 83.2923 16.1882 84.1185 17.1701C85.184 18.4364 86.4393 18.6411 93.1494 18.6423C98.0776 18.6435 98.3516 18.6254 98.6646 18.2793C98.8459 18.079 99.0231 17.5751 99.0583 17.1593C99.1096 16.5531 99.0334 16.3146 98.6735 15.9545L98.2246 15.5056H92.9497C88.6194 15.5056 87.5531 15.4547 86.9951 15.2215C86.6212 15.0654 86.2514 14.8369 86.1732 14.7139C86.0951 14.591 86.03 12.989 86.0283 11.154C86.0255 7.90333 86.0366 7.80735 86.4526 7.41622C86.8724 7.02196 86.9804 7.01494 92.6257 7.01494C98.354 7.01494 98.3722 7.01365 98.6587 6.60462C99.0771 6.00733 99.0319 4.70124 98.5769 4.24625C98.2238 3.89315 97.9771 3.87802 92.9011 3.89887C89.9825 3.91069 87.214 3.98489 86.7491 4.06352ZM116.85 4.05078C115.003 4.38856 114.034 5.0261 113.187 6.46121L112.697 7.29181V11.3526C112.697 15.2055 112.718 15.453 113.111 16.1871C113.571 17.047 114.377 17.735 115.476 18.2055C116.451 18.6228 121.876 18.7939 123.715 18.4655C125.31 18.1803 126.544 17.3902 127.184 16.2439C127.641 15.4255 127.648 15.3526 127.648 11.2603C127.648 7.27188 127.631 7.07438 127.218 6.27663C126.723 5.32106 126.317 4.9519 125.156 4.40296C124.423 4.05576 123.939 4.00353 121.003 3.95443C119.176 3.92379 117.307 3.96717 116.85 4.05078ZM134.57 4.04912C132.983 4.36715 131.238 5.81629 130.999 7.01439C130.938 7.31876 130.881 9.94348 130.873 12.8471C130.855 18.8033 130.812 18.6261 132.28 18.6375C133.649 18.6483 133.647 18.6566 133.647 12.9444V7.92031L134.135 7.46753C134.571 7.06367 134.787 7.01494 136.137 7.01494C137.984 7.01494 138.262 6.806 138.262 5.4139C138.262 4.13605 137.936 3.87081 136.401 3.89832C135.749 3.90994 134.925 3.97787 134.57 4.04912ZM144.707 4.06352C142.986 4.35479 141.618 5.45082 140.935 7.08508C140.535 8.04379 140.541 14.6768 140.944 15.64C141.585 17.1749 142.651 17.9985 144.573 18.443C145.728 18.7103 151.161 18.6998 152.254 18.4282C153.876 18.0253 155.109 16.9509 155.587 15.5242C155.851 14.7333 155.86 8.34816 155.598 7.19952C155.006 4.60507 153.309 3.86435 148.044 3.90238C146.674 3.91234 145.172 3.98489 144.707 4.06352ZM157.411 4.10782C156.596 4.73003 156.883 5.63318 158.888 8.76845C160.889 11.8969 161.887 13.4734 163.465 16.0018C164.364 17.442 165.28 18.7175 165.502 18.836C166.124 19.1688 166.627 18.8915 167.298 17.8472C168.164 16.4986 171.414 11.3407 171.763 10.7612C171.864 10.5925 172.397 9.74284 172.948 8.8731C175.189 5.3301 175.327 4.94968 174.624 4.24625C174.375 3.99725 174.009 3.87709 173.498 3.87709C172.89 3.87709 172.637 3.98931 172.206 4.45039C171.911 4.76566 171.67 5.10196 171.67 5.19757C171.67 5.29337 171.358 5.84527 170.976 6.42411C170.383 7.32356 168.476 10.395 167.885 11.4035C166.406 13.9271 166.072 14.3922 165.863 14.2193C165.74 14.117 165.199 13.3056 164.66 12.4161C162.629 9.05935 159.783 4.51094 159.52 4.20011C159.195 3.81618 157.869 3.75804 157.411 4.10782ZM11.8794 7.43449L12.3783 7.76175V11.175V14.5881L11.7784 14.9539C11.228 15.2895 10.8402 15.3197 7.07161 15.3203L2.96472 15.321V11.5584C2.96472 6.70577 2.59297 7.03322 8.04933 7.07918C10.8968 7.10317 11.453 7.15467 11.8794 7.43449ZM38.8398 7.13233C39.3525 7.20266 39.8814 7.42139 40.1577 7.67722C40.6141 8.10027 40.6189 8.13737 40.6189 11.1774V14.2501L40.0591 14.773C39.3516 15.434 38.3333 15.5754 35.0347 15.4709C32.5037 15.3906 31.5736 15.1431 31.32 14.4821C31.2571 14.3178 31.2054 12.8704 31.2054 11.2656C31.2054 7.96239 31.2763 7.7588 32.5897 7.29292C33.3733 7.01513 37.2565 6.91527 38.8398 7.13233ZM59.3923 10.7988L59.4309 14.4904L58.8462 14.9519C58.2638 15.4115 58.2456 15.4133 54.3159 15.4133H50.3703L49.9245 14.8954C49.4933 14.3944 49.4788 14.2809 49.4788 11.4223C49.4788 9.65831 49.5592 8.31715 49.6783 8.09455C49.7879 7.88967 50.2241 7.5637 50.6473 7.37063C51.3388 7.05481 51.8194 7.0238 55.3853 7.0633L59.3538 7.10723L59.3923 10.7988ZM76.8427 7.45147L77.3503 7.79572V11.1767V14.5576L76.7504 14.9855C76.2024 15.3762 75.9203 15.4188 73.4931 15.4774C70.0808 15.5595 68.9421 15.4203 68.3734 14.8516C67.9487 14.4269 67.9367 14.3295 67.9367 11.2972C67.9367 7.88487 67.9085 7.97863 69.1365 7.31618C69.5981 7.06718 70.2425 7.02491 73.0127 7.06238C75.9037 7.10132 76.401 7.1519 76.8427 7.45147ZM123.94 7.27299C124.28 7.41493 124.614 7.62147 124.682 7.73204C124.923 8.12261 124.902 14.2303 124.659 14.5786C124.138 15.3218 123.296 15.5058 120.422 15.5036C117.12 15.5012 116.439 15.4032 115.836 14.8444C115.378 14.4195 115.374 14.3885 115.374 11.2977C115.374 7.88321 115.357 7.94043 116.574 7.30566C117.331 6.91103 123.013 6.88574 123.94 7.27299ZM152.223 7.36934C152.917 7.79276 152.973 8.13922 152.951 11.8408C152.929 15.4222 152.822 15.5028 148.094 15.5045C145.028 15.5058 144.008 15.2804 143.665 14.5266C143.47 14.0982 143.509 8.2579 143.709 7.93415C143.772 7.83282 144.129 7.58806 144.503 7.39056C145.1 7.07512 145.578 7.03026 148.413 7.0238C151.278 7.01716 151.709 7.05629 152.223 7.36934ZM6.25559 9.50012C5.52114 9.99332 5.31386 10.4225 5.31386 11.45C5.31386 12.7923 6.28955 13.658 7.80347 13.6591C9.43183 13.6604 10.4959 12.1817 9.98372 10.6294C9.51951 9.2227 7.55484 8.62761 6.25559 9.50012ZM53.3852 9.35707C52.5524 9.76758 52.1869 10.3854 52.2017 11.3587C52.2255 12.9388 53.5646 13.9158 55.1291 13.4944C56.2739 13.1862 56.7697 12.5403 56.7697 11.357C56.7697 10.2471 56.4254 9.71497 55.4374 9.29672C54.664 8.96927 54.1409 8.98478 53.3852 9.35707Z" fill="url(#paint0_linear_268_82)" stroke="#FBFCFF" stroke-width="1.4" mask="url(#path-1-inside-1_268_82)"/>
</g>
<line y1="21.5" x2="171" y2="21.5" stroke="url(#paint1_linear_268_82)"/>
<defs>
<linearGradient id="paint0_linear_268_82" x1="-0.100657" y1="11.0997" x2="219.842" y2="11.0997" gradientUnits="userSpaceOnUse">
<stop stop-color="#0294E7"/>
<stop offset="1" stop-color="#03CCC1"/>
</linearGradient>
<linearGradient id="paint1_linear_268_82" x1="-0.0983561" y1="22.4908" x2="214.817" y2="22.4906" gradientUnits="userSpaceOnUse">
<stop stop-color="#0294E7"/>
<stop offset="1" stop-color="#03CCC1"/>
</linearGradient>
</defs>
</svg>
