<svg width="14" height="14" viewBox="0 0 14 14" fill="none" xmlns="http://www.w3.org/2000/svg">
<g clip-path="url(#clip0_207_722)">
<path d="M6.50781 13.0156C2.91947 13.0156 0 10.0962 0 6.50781C0 2.91947 2.91947 0 6.50781 0C10.0962 0 13.0156 2.91947 13.0156 6.50781C13.0156 10.0962 10.0962 13.0156 6.50781 13.0156ZM6.50781 0.81348C3.3679 0.81348 0.81348 3.3679 0.81348 6.50781C0.81348 9.64772 3.3679 12.2021 6.50781 12.2021C9.64772 12.2021 12.2021 9.64772 12.2021 6.50781C12.2021 3.3679 9.64772 0.81348 6.50781 0.81348Z" fill="white"/>
<path d="M6.50783 9.76175C4.71365 9.76175 3.25391 8.30203 3.25391 6.50783C3.25391 4.71363 4.71363 3.25391 6.50783 3.25391C7.39001 3.25391 8.21541 3.60107 8.83267 4.23143L8.25118 4.80021C7.78844 4.32753 7.1696 4.06736 6.50783 4.06736C5.16209 4.06736 4.06739 5.16206 4.06739 6.5078C4.06739 7.85354 5.16209 8.94824 6.50783 8.94824C7.16919 8.94824 7.78803 8.68807 8.25118 8.21538L8.83188 8.78499C8.215 9.41496 7.38963 9.76172 6.50783 9.76175Z" fill="white"/>
</g>
<defs>
<clipPath id="clip0_207_722">
<rect width="13.0156" height="13.0156" fill="white"/>
</clipPath>
</defs>
</svg>
