<svg width="33" height="33" viewBox="0 0 33 33" fill="none" xmlns="http://www.w3.org/2000/svg">
<path d="M27.3999 8.24037C27.3999 9.30015 26.5406 10.1594 25.4806 10.1594C24.4208 10.1594 23.5615 9.30015 23.5615 8.24037C23.5615 7.18034 24.4208 6.32129 25.4806 6.32129C26.5406 6.32129 27.3999 7.18034 27.3999 8.24037Z" fill="white"/>
<path d="M16.9352 8.56445C12.397 8.56445 8.71484 12.2463 8.71484 16.7848C8.71484 21.3233 12.397 25.0052 16.9352 25.0052C21.4737 25.0052 25.1556 21.3233 25.1556 16.7848C25.1556 12.2463 21.4737 8.56445 16.9352 8.56445ZM16.9352 22.1172C13.991 22.1172 11.6029 19.7292 11.6029 16.7848C11.6029 13.8404 13.991 11.4525 16.9352 11.4525C19.8796 11.4525 22.2675 13.8404 22.2675 16.7848C22.2675 19.7292 19.8796 22.1172 16.9352 22.1172Z" fill="white"/>
<path d="M32.8446 10.1903C32.7696 8.49003 32.4947 7.3211 32.1008 6.30821C31.6945 5.23305 31.0693 4.27046 30.2503 3.47025C29.4501 2.65759 28.4812 2.02612 27.4185 1.62614C26.3997 1.23227 25.2369 0.95731 23.5366 0.882344C21.8236 0.801029 21.2798 0.782227 16.9352 0.782227C12.5906 0.782227 12.0468 0.801029 10.3402 0.875995C8.63993 0.950961 7.471 1.22616 6.45835 1.61979C5.38295 2.02612 4.42036 2.65124 3.62015 3.47025C2.80749 4.27046 2.17627 5.2394 1.77604 6.3021C1.38217 7.3211 1.10721 8.48368 1.03225 10.184C0.950931 11.8969 0.932129 12.4408 0.932129 16.7854C0.932129 21.13 0.950931 21.6738 1.0259 23.3804C1.10086 25.0807 1.37606 26.2496 1.76994 27.2625C2.17627 28.3377 2.80749 29.3002 3.62015 30.1005C4.42036 30.9131 5.38929 31.5446 6.452 31.9446C7.471 32.3384 8.63358 32.6134 10.3341 32.6884C12.0405 32.7636 12.5845 32.7821 16.9291 32.7821C21.2737 32.7821 21.8175 32.7636 23.5242 32.6884C25.2245 32.6134 26.3934 32.3384 27.406 31.9446C29.5566 31.1131 31.2569 29.4128 32.0883 27.2625C32.482 26.2435 32.7572 25.0807 32.8321 23.3804C32.9071 21.6738 32.9259 21.13 32.9259 16.7854C32.9259 12.4408 32.9196 11.8969 32.8446 10.1903ZM29.9629 23.2554C29.8941 24.8182 29.6316 25.6621 29.4128 26.2247C28.8751 27.6188 27.7686 28.7252 26.3746 29.2629C25.812 29.4817 24.962 29.7442 23.4053 29.8128C21.7174 29.888 21.2112 29.9066 16.9416 29.9066C12.672 29.9066 12.1594 29.888 10.4777 29.8128C8.91488 29.7442 8.07097 29.4817 7.50836 29.2629C6.81462 29.0065 6.18315 28.6002 5.6706 28.0688C5.13925 27.5499 4.73292 26.9248 4.47652 26.231C4.25773 25.6684 3.99522 24.8182 3.92661 23.2617C3.8514 21.5739 3.83284 21.0674 3.83284 16.7978C3.83284 12.5282 3.8514 12.0156 3.92661 10.3341C3.99522 8.77134 4.25773 7.92742 4.47652 7.36481C4.73292 6.67083 5.13925 6.0396 5.67695 5.52681C6.1956 4.99545 6.82073 4.58912 7.51471 4.33297C8.07732 4.11418 8.92758 3.85167 10.484 3.78281C12.1719 3.70785 12.6783 3.68904 16.9477 3.68904C21.2237 3.68904 21.7299 3.70785 23.4116 3.78281C24.9744 3.85167 25.8183 4.11418 26.3809 4.33297C27.0747 4.58912 27.7061 4.99545 28.2187 5.52681C28.75 6.04571 29.1564 6.67083 29.4128 7.36481C29.6316 7.92742 29.8941 8.77744 29.9629 10.3341C30.0379 12.022 30.0567 12.5282 30.0567 16.7978C30.0567 21.0674 30.0379 21.5675 29.9629 23.2554Z" fill="white"/>
</svg>
