<svg width="29" height="28" viewBox="0 0 29 28" fill="none" xmlns="http://www.w3.org/2000/svg">
<path fill-rule="evenodd" clip-rule="evenodd" d="M7.33297 0.0783321C4.26046 0.509718 1.7875 2.72026 1.03225 5.71039C0.961132 5.99192 0.876922 6.4405 0.845081 6.70722C0.765181 7.37661 0.765181 20.209 0.845081 20.8784C1.2198 24.0184 3.4536 26.5724 6.49787 27.3414C6.77938 27.4126 7.22791 27.4968 7.4946 27.5286C8.16391 27.6085 20.995 27.6085 21.6643 27.5286C24.4942 27.1908 26.8602 25.3441 27.8884 22.6705C28.0548 22.2377 28.2494 21.4179 28.3138 20.8784C28.3937 20.209 28.3937 7.37661 28.3138 6.70722C27.976 3.87702 26.1295 1.5107 23.4562 0.482454C23.0234 0.316009 22.2038 0.121385 21.6643 0.0569945C20.9269 -0.0310501 7.97453 -0.01176 7.33297 0.0783321ZM23.2845 3.59047C23.9835 3.82556 24.5436 4.38589 24.7803 5.08685C24.8924 5.41877 24.8964 6.07754 24.7885 6.43328C24.3466 7.89022 22.6077 8.51564 21.3396 7.67377C20.596 7.18015 20.2016 6.30126 20.3395 5.44496C20.4777 4.58633 21.0659 3.87799 21.8676 3.60475C22.2379 3.4785 22.9308 3.47155 23.2845 3.59047ZM22.2781 5.19834C21.9678 5.36699 21.8462 5.82402 22.0349 6.11197C22.4029 6.67386 23.2537 6.4294 23.2537 5.76179C23.2537 5.28121 22.7068 4.96529 22.2781 5.19834ZM15.7647 6.32745C17.367 6.59471 18.7786 7.31847 19.9159 8.45583C21.3614 9.90156 22.1204 11.7389 22.1204 13.7928C22.1204 15.8468 21.3614 17.6841 19.9159 19.1298C18.4703 20.5755 16.6332 21.3345 14.5794 21.3345C12.5257 21.3345 10.6886 20.5755 9.24302 19.1298C7.79744 17.6841 7.03853 15.8468 7.03853 13.7928C7.03853 11.7389 7.79744 9.90156 9.24302 8.45583C10.362 7.33668 11.7757 6.60409 13.3403 6.33252C13.8941 6.23634 15.2022 6.23364 15.7647 6.32745ZM13.5364 7.95186C10.7261 8.4596 8.65296 10.9393 8.65296 13.7928C8.65296 17.4491 11.9884 20.2633 15.5797 19.637C19.5281 18.9484 21.6762 14.6318 19.8412 11.0737C18.6588 8.7809 16.0627 7.49547 13.5364 7.95186Z" fill="white"/>
</svg>
