<svg width="25" height="25" viewBox="0 0 25 25" fill="none" xmlns="http://www.w3.org/2000/svg">
<g clip-path="url(#clip0_53:438)">
<path fill-rule="evenodd" clip-rule="evenodd" d="M12.9529 1.90907C12.9529 3.19747 12.9113 3.09281 13.424 3.09281C13.8797 3.09281 14.707 3.21584 15.3287 3.37613C19.3784 4.41988 22.3388 7.99843 22.5579 12.1149L22.5879 12.6773L23.7319 12.6899L24.876 12.7024L24.8436 12.1274C24.7486 10.4408 24.3482 8.91845 23.6141 7.4527C23.007 6.2406 22.3951 5.37509 21.4636 4.41093C19.3722 2.24619 16.5946 0.987555 13.5273 0.814612L12.9529 0.782227V1.90907ZM4.29895 3.22222C3.92775 3.35481 3.67921 3.56731 2.49461 4.76478C1.30072 5.97168 1.15387 6.17138 0.967268 6.84225C0.835942 7.3143 0.848179 8.47677 0.991883 9.18564C1.34624 10.9332 2.3864 13.2333 3.71968 15.2174C5.22128 17.452 7.31105 19.6511 9.41307 21.2086C11.8076 22.9829 14.5014 24.2958 16.4768 24.6514C17.89 24.9057 18.8992 24.7913 19.6575 24.2908C19.7994 24.1972 20.4282 23.6022 21.0549 22.9686C22.4141 21.5945 22.4941 21.4742 22.4941 20.8051C22.4941 20.112 22.4562 20.0607 20.5015 18.1079C19.0021 16.6101 18.8043 16.4289 18.5071 16.2814C18.2248 16.1414 18.13 16.1177 17.8507 16.1182C17.1783 16.1191 17.0099 16.2297 15.6925 17.5347C14.9237 18.2962 14.5803 18.6061 14.5051 18.6061C14.2476 18.6061 12.8891 17.8239 12.0406 17.1872C10.5249 16.0497 8.84796 14.2755 7.84442 12.7476C7.49639 12.2178 7.04535 11.3206 7.04535 11.1582C7.04535 11.0704 7.30688 10.7781 8.13661 9.93844C9.45137 8.6079 9.50684 8.52242 9.50684 7.82647C9.50684 7.13053 9.49906 7.11989 7.54848 5.15439C5.64245 3.23379 5.57221 3.18046 4.91207 3.15285C4.63652 3.14137 4.47383 3.15979 4.29895 3.22222ZM12.9529 6.1815V7.30174L13.246 7.33164C14.1044 7.41929 14.7322 7.58885 15.3513 7.90029C15.8537 8.153 16.2047 8.40459 16.6473 8.82945C17.6702 9.81105 18.167 10.8715 18.324 12.4078L18.3539 12.7007H19.4746H20.5952L20.5943 12.4547C20.593 12.0953 20.4768 11.2801 20.364 10.8383C20.0276 9.52131 19.3223 8.29028 18.3437 7.312C17.3669 6.33561 16.1348 5.62907 14.8269 5.29523C14.362 5.17661 13.5821 5.06328 13.2225 5.06211L12.9529 5.06127V6.1815Z" fill="white"/>
</g>
<defs>
<clipPath id="clip0_53:438">
<rect width="24" height="24" fill="white" transform="translate(0.875977 0.782227)"/>
</clipPath>
</defs>
</svg>
