<svg width="20" height="24" viewBox="0 0 22 25" fill="none" xmlns="http://www.w3.org/2000/svg">
<g clip-path="url(#clip0_53:432)">
<path d="M10.6941 2.87305C9.13727 2.87312 7.60883 3.26777 6.2672 4.01608C4.92557 4.76439 3.81959 5.83912 3.06393 7.12886C2.30826 8.41859 1.93041 9.87637 1.96956 11.3511C2.0087 12.8258 2.46341 14.2637 3.28655 15.5158L10.6941 25.7821L18.1016 15.5158C18.9247 14.2637 19.3794 12.8258 19.4186 11.3511C19.4577 9.87637 19.0799 8.41859 18.3242 7.12886C17.5685 5.83912 16.4626 4.76439 15.1209 4.01608C13.7793 3.26777 12.2509 2.87312 10.6941 2.87305V2.87305ZM10.6941 14.185C10.0592 14.185 9.4385 14.0066 8.91058 13.6724C8.38267 13.3381 7.97121 12.863 7.72824 12.3072C7.48526 11.7514 7.42169 11.1398 7.54556 10.5497C7.66942 9.95963 7.97517 9.41762 8.42412 8.99221C8.87307 8.56679 9.44508 8.27708 10.0678 8.15971C10.6905 8.04234 11.336 8.10258 11.9226 8.33281C12.5091 8.56304 13.0105 8.95293 13.3632 9.45316C13.716 9.95339 13.9043 10.5415 13.9043 11.1431C13.9043 11.9499 13.566 12.7236 12.964 13.2941C12.362 13.8645 11.5455 14.185 10.6941 14.185Z" fill="white"/>
</g>
<defs>
<clipPath id="clip0_53:432">
<rect width="20.7273" height="24" fill="white" transform="translate(0.875977 0.782227)"/>
</clipPath>
</defs>
</svg>
