<svg width="38" height="28" viewBox="0 0 38 28" fill="none" xmlns="http://www.w3.org/2000/svg">
<path fill-rule="evenodd" clip-rule="evenodd" d="M14.6211 1.0252C8.37295 1.14207 4.70365 1.43353 3.55618 1.90388C2.51543 2.33051 1.63616 3.13143 1.11946 4.12347C0.448842 5.41101 0.095002 8.22888 0.0122179 12.9411C-0.0539631 16.7044 0.150989 20.128 0.57186 22.2904C1.03103 24.6498 2.28808 25.9963 4.46217 26.4577C6.43702 26.8769 11.6803 27.1248 18.5596 27.1243C25.5836 27.1239 30.5948 26.8868 32.6915 26.4558C33.3763 26.315 34.3519 25.8294 34.8629 25.3748C35.3945 24.9019 35.937 24.0814 36.1624 23.4092C36.7777 21.5742 37.1566 16.2232 36.9857 11.78C36.7538 5.75335 36.2664 3.85958 34.6241 2.60515C33.8634 2.02409 33.3405 1.81194 32.1686 1.60875C30.7182 1.35726 27.2207 1.13521 23.5405 1.06096C19.2278 0.974015 17.6872 0.967782 14.6211 1.0252ZM19.6035 11.2492C22.2042 12.7611 24.3291 14.032 24.3255 14.0734C24.3203 14.1332 14.9368 19.6414 14.8401 19.6414C14.8259 19.6414 14.8142 17.1347 14.8142 14.0708C14.8142 11.007 14.8279 8.50024 14.8445 8.50024C14.8613 8.50024 17.0028 9.73722 19.6035 11.2492Z" fill="white"/>
</svg>
